# xmcd
#
# Track frame offsets:
#	150
#	13362
#	35900
#	56025
#	80512
#	115800
#	128125
#	145000
#	161137
#	175487
#	190162
#	225725
#	242600
#
# Disc length: 3509 seconds
#
# Revision: 0
# Processed by: cddbd v1.5.2PL0 Copyright (c) Steve Scherf et al.
# Submitted via: EasyCDDAExtractor 11.9.9.666
#
DISCID=b70db30d
DTITLE=Dave Kelly Band - Live!
DYEAR=1983
DGENRE=Blues
TTITLE0=Foolish Pride
TTITLE1=Lights Out
TTITLE2=That's Why
TTITLE3=Best Part Of Breaking Up
TTITLE4=Grit's Aint Groceries
TTITLE5=Barnyard Boogie
TTITLE6=Waiting For Bessie
TTITLE7=Red Red Wine
TTITLE8=Bad Luck
TTITLE9=Return To Sender
TTITLE10=When I'm Dead And Gone
TTITLE11=Keep On Dancing
TTITLE12=Too Bad To Be True
EXTD=
EXTT0=
EXTT1=
EXTT2=
EXTT3=
EXTT4=
EXTT5=
EXTT6=
EXTT7=
EXTT8=
EXTT9=
EXTT10=
EXTT11=
EXTT12=
PLAYORDER=
